<?xml version="1.0" encoding="UTF-8" ?>
<svg version="1.1" width="355" height="55" xmlns="http://www.w3.org/2000/svg" fill="current-color" shape-rendering="crispEdges">
<rect x="310" y="0" width="5" height="5" />
<rect x="0" y="5" width="5" height="5" />
<rect x="5" y="5" width="5" height="5" />
<rect x="10" y="5" width="5" height="5" />
<rect x="15" y="5" width="5" height="5" />
<rect x="20" y="5" width="5" height="5" />
<rect x="25" y="5" width="5" height="5" />
<rect x="30" y="5" width="5" height="5" />
<rect x="35" y="5" width="5" height="5" />
<rect x="90" y="5" width="5" height="5" />
<rect x="110" y="5" width="5" height="5" />
<rect x="115" y="5" width="5" height="5" />
<rect x="155" y="5" width="5" height="5" />
<rect x="160" y="5" width="5" height="5" />
<rect x="200" y="5" width="5" height="5" />
<rect x="205" y="5" width="5" height="5" />
<rect x="210" y="5" width="5" height="5" />
<rect x="215" y="5" width="5" height="5" />
<rect x="220" y="5" width="5" height="5" />
<rect x="225" y="5" width="5" height="5" />
<rect x="230" y="5" width="5" height="5" />
<rect x="235" y="5" width="5" height="5" />
<rect x="255" y="5" width="5" height="5" />
<rect x="260" y="5" width="5" height="5" />
<rect x="265" y="5" width="5" height="5" />
<rect x="270" y="5" width="5" height="5" />
<rect x="275" y="5" width="5" height="5" />
<rect x="280" y="5" width="5" height="5" />
<rect x="285" y="5" width="5" height="5" />
<rect x="290" y="5" width="5" height="5" />
<rect x="310" y="5" width="5" height="5" />
<rect x="315" y="5" width="5" height="5" />
<rect x="340" y="5" width="5" height="5" />
<rect x="345" y="5" width="5" height="5" />
<rect x="350" y="5" width="5" height="5" />
<rect x="0" y="10" width="5" height="5" />
<rect x="5" y="10" width="5" height="5" />
<rect x="10" y="10" width="5" height="5" />
<rect x="15" y="10" width="5" height="5" />
<rect x="20" y="10" width="5" height="5" />
<rect x="25" y="10" width="5" height="5" />
<rect x="30" y="10" width="5" height="5" />
<rect x="35" y="10" width="5" height="5" />
<rect x="85" y="10" width="5" height="5" />
<rect x="90" y="10" width="5" height="5" />
<rect x="110" y="10" width="5" height="5" />
<rect x="115" y="10" width="5" height="5" />
<rect x="155" y="10" width="5" height="5" />
<rect x="160" y="10" width="5" height="5" />
<rect x="200" y="10" width="5" height="5" />
<rect x="205" y="10" width="5" height="5" />
<rect x="210" y="10" width="5" height="5" />
<rect x="215" y="10" width="5" height="5" />
<rect x="220" y="10" width="5" height="5" />
<rect x="225" y="10" width="5" height="5" />
<rect x="230" y="10" width="5" height="5" />
<rect x="235" y="10" width="5" height="5" />
<rect x="255" y="10" width="5" height="5" />
<rect x="260" y="10" width="5" height="5" />
<rect x="265" y="10" width="5" height="5" />
<rect x="270" y="10" width="5" height="5" />
<rect x="275" y="10" width="5" height="5" />
<rect x="280" y="10" width="5" height="5" />
<rect x="285" y="10" width="5" height="5" />
<rect x="290" y="10" width="5" height="5" />
<rect x="310" y="10" width="5" height="5" />
<rect x="315" y="10" width="5" height="5" />
<rect x="320" y="10" width="5" height="5" />
<rect x="335" y="10" width="5" height="5" />
<rect x="340" y="10" width="5" height="5" />
<rect x="345" y="10" width="5" height="5" />
<rect x="0" y="15" width="5" height="5" />
<rect x="5" y="15" width="5" height="5" />
<rect x="80" y="15" width="5" height="5" />
<rect x="85" y="15" width="5" height="5" />
<rect x="90" y="15" width="5" height="5" />
<rect x="110" y="15" width="5" height="5" />
<rect x="115" y="15" width="5" height="5" />
<rect x="155" y="15" width="5" height="5" />
<rect x="160" y="15" width="5" height="5" />
<rect x="200" y="15" width="5" height="5" />
<rect x="205" y="15" width="5" height="5" />
<rect x="285" y="15" width="5" height="5" />
<rect x="290" y="15" width="5" height="5" />
<rect x="315" y="15" width="5" height="5" />
<rect x="320" y="15" width="5" height="5" />
<rect x="325" y="15" width="5" height="5" />
<rect x="330" y="15" width="5" height="5" />
<rect x="335" y="15" width="5" height="5" />
<rect x="340" y="15" width="5" height="5" />
<rect x="0" y="20" width="5" height="5" />
<rect x="5" y="20" width="5" height="5" />
<rect x="35" y="20" width="5" height="5" />
<rect x="75" y="20" width="5" height="5" />
<rect x="80" y="20" width="5" height="5" />
<rect x="85" y="20" width="5" height="5" />
<rect x="90" y="20" width="5" height="5" />
<rect x="110" y="20" width="5" height="5" />
<rect x="115" y="20" width="5" height="5" />
<rect x="155" y="20" width="5" height="5" />
<rect x="160" y="20" width="5" height="5" />
<rect x="200" y="20" width="5" height="5" />
<rect x="205" y="20" width="5" height="5" />
<rect x="210" y="20" width="5" height="5" />
<rect x="215" y="20" width="5" height="5" />
<rect x="220" y="20" width="5" height="5" />
<rect x="225" y="20" width="5" height="5" />
<rect x="230" y="20" width="5" height="5" />
<rect x="235" y="20" width="5" height="5" />
<rect x="255" y="20" width="5" height="5" />
<rect x="260" y="20" width="5" height="5" />
<rect x="265" y="20" width="5" height="5" />
<rect x="270" y="20" width="5" height="5" />
<rect x="275" y="20" width="5" height="5" />
<rect x="280" y="20" width="5" height="5" />
<rect x="285" y="20" width="5" height="5" />
<rect x="290" y="20" width="5" height="5" />
<rect x="320" y="20" width="5" height="5" />
<rect x="325" y="20" width="5" height="5" />
<rect x="330" y="20" width="5" height="5" />
<rect x="335" y="20" width="5" height="5" />
<rect x="0" y="25" width="5" height="5" />
<rect x="5" y="25" width="5" height="5" />
<rect x="30" y="25" width="5" height="5" />
<rect x="35" y="25" width="5" height="5" />
<rect x="70" y="25" width="5" height="5" />
<rect x="75" y="25" width="5" height="5" />
<rect x="80" y="25" width="5" height="5" />
<rect x="85" y="25" width="5" height="5" />
<rect x="90" y="25" width="5" height="5" />
<rect x="110" y="25" width="5" height="5" />
<rect x="115" y="25" width="5" height="5" />
<rect x="155" y="25" width="5" height="5" />
<rect x="160" y="25" width="5" height="5" />
<rect x="200" y="25" width="5" height="5" />
<rect x="205" y="25" width="5" height="5" />
<rect x="210" y="25" width="5" height="5" />
<rect x="215" y="25" width="5" height="5" />
<rect x="220" y="25" width="5" height="5" />
<rect x="225" y="25" width="5" height="5" />
<rect x="230" y="25" width="5" height="5" />
<rect x="235" y="25" width="5" height="5" />
<rect x="255" y="25" width="5" height="5" />
<rect x="260" y="25" width="5" height="5" />
<rect x="265" y="25" width="5" height="5" />
<rect x="270" y="25" width="5" height="5" />
<rect x="275" y="25" width="5" height="5" />
<rect x="280" y="25" width="5" height="5" />
<rect x="285" y="25" width="5" height="5" />
<rect x="290" y="25" width="5" height="5" />
<rect x="325" y="25" width="5" height="5" />
<rect x="330" y="25" width="5" height="5" />
<rect x="0" y="30" width="5" height="5" />
<rect x="5" y="30" width="5" height="5" />
<rect x="30" y="30" width="5" height="5" />
<rect x="35" y="30" width="5" height="5" />
<rect x="65" y="30" width="5" height="5" />
<rect x="70" y="30" width="5" height="5" />
<rect x="75" y="30" width="5" height="5" />
<rect x="85" y="30" width="5" height="5" />
<rect x="90" y="30" width="5" height="5" />
<rect x="110" y="30" width="5" height="5" />
<rect x="115" y="30" width="5" height="5" />
<rect x="155" y="30" width="5" height="5" />
<rect x="160" y="30" width="5" height="5" />
<rect x="200" y="30" width="5" height="5" />
<rect x="205" y="30" width="5" height="5" />
<rect x="255" y="30" width="5" height="5" />
<rect x="260" y="30" width="5" height="5" />
<rect x="270" y="30" width="5" height="5" />
<rect x="275" y="30" width="5" height="5" />
<rect x="280" y="30" width="5" height="5" />
<rect x="325" y="30" width="5" height="5" />
<rect x="330" y="30" width="5" height="5" />
<rect x="0" y="35" width="5" height="5" />
<rect x="5" y="35" width="5" height="5" />
<rect x="10" y="35" width="5" height="5" />
<rect x="15" y="35" width="5" height="5" />
<rect x="20" y="35" width="5" height="5" />
<rect x="25" y="35" width="5" height="5" />
<rect x="30" y="35" width="5" height="5" />
<rect x="35" y="35" width="5" height="5" />
<rect x="60" y="35" width="5" height="5" />
<rect x="65" y="35" width="5" height="5" />
<rect x="70" y="35" width="5" height="5" />
<rect x="85" y="35" width="5" height="5" />
<rect x="90" y="35" width="5" height="5" />
<rect x="110" y="35" width="5" height="5" />
<rect x="115" y="35" width="5" height="5" />
<rect x="120" y="35" width="5" height="5" />
<rect x="125" y="35" width="5" height="5" />
<rect x="130" y="35" width="5" height="5" />
<rect x="135" y="35" width="5" height="5" />
<rect x="155" y="35" width="5" height="5" />
<rect x="160" y="35" width="5" height="5" />
<rect x="165" y="35" width="5" height="5" />
<rect x="170" y="35" width="5" height="5" />
<rect x="175" y="35" width="5" height="5" />
<rect x="180" y="35" width="5" height="5" />
<rect x="200" y="35" width="5" height="5" />
<rect x="205" y="35" width="5" height="5" />
<rect x="210" y="35" width="5" height="5" />
<rect x="215" y="35" width="5" height="5" />
<rect x="220" y="35" width="5" height="5" />
<rect x="225" y="35" width="5" height="5" />
<rect x="230" y="35" width="5" height="5" />
<rect x="235" y="35" width="5" height="5" />
<rect x="255" y="35" width="5" height="5" />
<rect x="260" y="35" width="5" height="5" />
<rect x="275" y="35" width="5" height="5" />
<rect x="280" y="35" width="5" height="5" />
<rect x="285" y="35" width="5" height="5" />
<rect x="325" y="35" width="5" height="5" />
<rect x="330" y="35" width="5" height="5" />
<rect x="0" y="40" width="5" height="5" />
<rect x="5" y="40" width="5" height="5" />
<rect x="10" y="40" width="5" height="5" />
<rect x="15" y="40" width="5" height="5" />
<rect x="20" y="40" width="5" height="5" />
<rect x="25" y="40" width="5" height="5" />
<rect x="30" y="40" width="5" height="5" />
<rect x="35" y="40" width="5" height="5" />
<rect x="55" y="40" width="5" height="5" />
<rect x="60" y="40" width="5" height="5" />
<rect x="65" y="40" width="5" height="5" />
<rect x="85" y="40" width="5" height="5" />
<rect x="90" y="40" width="5" height="5" />
<rect x="110" y="40" width="5" height="5" />
<rect x="115" y="40" width="5" height="5" />
<rect x="120" y="40" width="5" height="5" />
<rect x="125" y="40" width="5" height="5" />
<rect x="130" y="40" width="5" height="5" />
<rect x="135" y="40" width="5" height="5" />
<rect x="155" y="40" width="5" height="5" />
<rect x="160" y="40" width="5" height="5" />
<rect x="165" y="40" width="5" height="5" />
<rect x="170" y="40" width="5" height="5" />
<rect x="175" y="40" width="5" height="5" />
<rect x="180" y="40" width="5" height="5" />
<rect x="200" y="40" width="5" height="5" />
<rect x="205" y="40" width="5" height="5" />
<rect x="210" y="40" width="5" height="5" />
<rect x="215" y="40" width="5" height="5" />
<rect x="220" y="40" width="5" height="5" />
<rect x="225" y="40" width="5" height="5" />
<rect x="230" y="40" width="5" height="5" />
<rect x="235" y="40" width="5" height="5" />
<rect x="255" y="40" width="5" height="5" />
<rect x="260" y="40" width="5" height="5" />
<rect x="280" y="40" width="5" height="5" />
<rect x="285" y="40" width="5" height="5" />
<rect x="290" y="40" width="5" height="5" />
<rect x="325" y="40" width="5" height="5" />
<rect x="330" y="40" width="5" height="5" />
<rect x="30" y="45" width="5" height="5" />
<rect x="35" y="45" width="5" height="5" />
<rect x="285" y="45" width="5" height="5" />
<rect x="290" y="45" width="5" height="5" />
<rect x="30" y="50" width="5" height="5" />
<rect x="290" y="50" width="5" height="5" />
</svg>