<?xml version="1.0" encoding="UTF-8" ?>
<svg version="1.1" width="155" height="60" xmlns="http://www.w3.org/2000/svg" shape-rendering="crispEdges">
<rect x="0" y="0" width="5" height="5" />
<rect x="5" y="0" width="5" height="5" />
<rect x="10" y="0" width="5" height="5" />
<rect x="15" y="0" width="5" height="5" />
<rect x="20" y="0" width="5" height="5" />
<rect x="25" y="0" width="5" height="5" />
<rect x="30" y="0" width="5" height="5" />
<rect x="35" y="0" width="5" height="5" />
<rect x="85" y="0" width="5" height="5" />
<rect x="90" y="0" width="5" height="5" />
<rect x="110" y="0" width="5" height="5" />
<rect x="115" y="0" width="5" height="5" />
<rect x="120" y="0" width="5" height="5" />
<rect x="125" y="0" width="5" height="5" />
<rect x="130" y="0" width="5" height="5" />
<rect x="135" y="0" width="5" height="5" />
<rect x="140" y="0" width="5" height="5" />
<rect x="145" y="0" width="5" height="5" />
<rect x="150" y="0" width="5" height="5" />
<rect x="0" y="5" width="5" height="5" />
<rect x="5" y="5" width="5" height="5" />
<rect x="10" y="5" width="5" height="5" />
<rect x="15" y="5" width="5" height="5" />
<rect x="20" y="5" width="5" height="5" />
<rect x="25" y="5" width="5" height="5" />
<rect x="30" y="5" width="5" height="5" />
<rect x="35" y="5" width="5" height="5" />
<rect x="85" y="5" width="5" height="5" />
<rect x="90" y="5" width="5" height="5" />
<rect x="110" y="5" width="5" height="5" />
<rect x="115" y="5" width="5" height="5" />
<rect x="120" y="5" width="5" height="5" />
<rect x="125" y="5" width="5" height="5" />
<rect x="130" y="5" width="5" height="5" />
<rect x="135" y="5" width="5" height="5" />
<rect x="140" y="5" width="5" height="5" />
<rect x="145" y="5" width="5" height="5" />
<rect x="150" y="5" width="5" height="5" />
<rect x="0" y="10" width="5" height="5" />
<rect x="5" y="10" width="5" height="5" />
<rect x="30" y="10" width="5" height="5" />
<rect x="35" y="10" width="5" height="5" />
<rect x="85" y="10" width="5" height="5" />
<rect x="90" y="10" width="5" height="5" />
<rect x="145" y="10" width="5" height="5" />
<rect x="150" y="10" width="5" height="5" />
<rect x="0" y="15" width="5" height="5" />
<rect x="5" y="15" width="5" height="5" />
<rect x="30" y="15" width="5" height="5" />
<rect x="35" y="15" width="5" height="5" />
<rect x="85" y="15" width="5" height="5" />
<rect x="90" y="15" width="5" height="5" />
<rect x="110" y="15" width="5" height="5" />
<rect x="115" y="15" width="5" height="5" />
<rect x="120" y="15" width="5" height="5" />
<rect x="125" y="15" width="5" height="5" />
<rect x="130" y="15" width="5" height="5" />
<rect x="135" y="15" width="5" height="5" />
<rect x="140" y="15" width="5" height="5" />
<rect x="145" y="15" width="5" height="5" />
<rect x="150" y="15" width="5" height="5" />
<rect x="0" y="20" width="5" height="5" />
<rect x="5" y="20" width="5" height="5" />
<rect x="25" y="20" width="5" height="5" />
<rect x="30" y="20" width="5" height="5" />
<rect x="35" y="20" width="5" height="5" />
<rect x="80" y="20" width="5" height="5" />
<rect x="85" y="20" width="5" height="5" />
<rect x="90" y="20" width="5" height="5" />
<rect x="110" y="20" width="5" height="5" />
<rect x="115" y="20" width="5" height="5" />
<rect x="120" y="20" width="5" height="5" />
<rect x="125" y="20" width="5" height="5" />
<rect x="130" y="20" width="5" height="5" />
<rect x="135" y="20" width="5" height="5" />
<rect x="140" y="20" width="5" height="5" />
<rect x="145" y="20" width="5" height="5" />
<rect x="150" y="20" width="5" height="5" />
<rect x="0" y="25" width="5" height="5" />
<rect x="5" y="25" width="5" height="5" />
<rect x="20" y="25" width="5" height="5" />
<rect x="25" y="25" width="5" height="5" />
<rect x="30" y="25" width="5" height="5" />
<rect x="55" y="25" width="5" height="5" />
<rect x="60" y="25" width="5" height="5" />
<rect x="75" y="25" width="5" height="5" />
<rect x="80" y="25" width="5" height="5" />
<rect x="85" y="25" width="5" height="5" />
<rect x="110" y="25" width="5" height="5" />
<rect x="115" y="25" width="5" height="5" />
<rect x="0" y="30" width="5" height="5" />
<rect x="5" y="30" width="5" height="5" />
<rect x="15" y="30" width="5" height="5" />
<rect x="20" y="30" width="5" height="5" />
<rect x="25" y="30" width="5" height="5" />
<rect x="55" y="30" width="5" height="5" />
<rect x="60" y="30" width="5" height="5" />
<rect x="70" y="30" width="5" height="5" />
<rect x="75" y="30" width="5" height="5" />
<rect x="80" y="30" width="5" height="5" />
<rect x="110" y="30" width="5" height="5" />
<rect x="115" y="30" width="5" height="5" />
<rect x="0" y="35" width="5" height="5" />
<rect x="5" y="35" width="5" height="5" />
<rect x="10" y="35" width="5" height="5" />
<rect x="15" y="35" width="5" height="5" />
<rect x="20" y="35" width="5" height="5" />
<rect x="55" y="35" width="5" height="5" />
<rect x="60" y="35" width="5" height="5" />
<rect x="65" y="35" width="5" height="5" />
<rect x="70" y="35" width="5" height="5" />
<rect x="75" y="35" width="5" height="5" />
<rect x="110" y="35" width="5" height="5" />
<rect x="115" y="35" width="5" height="5" />
<rect x="0" y="40" width="5" height="5" />
<rect x="5" y="40" width="5" height="5" />
<rect x="10" y="40" width="5" height="5" />
<rect x="15" y="40" width="5" height="5" />
<rect x="55" y="40" width="5" height="5" />
<rect x="60" y="40" width="5" height="5" />
<rect x="65" y="40" width="5" height="5" />
<rect x="70" y="40" width="5" height="5" />
<rect x="110" y="40" width="5" height="5" />
<rect x="115" y="40" width="5" height="5" />
<rect x="0" y="45" width="5" height="5" />
<rect x="5" y="45" width="5" height="5" />
<rect x="10" y="45" width="5" height="5" />
<rect x="55" y="45" width="5" height="5" />
<rect x="60" y="45" width="5" height="5" />
<rect x="65" y="45" width="5" height="5" />
<rect x="110" y="45" width="5" height="5" />
<rect x="0" y="50" width="5" height="5" />
<rect x="5" y="50" width="5" height="5" />
<rect x="55" y="50" width="5" height="5" />
<rect x="60" y="50" width="5" height="5" />
<rect x="0" y="55" width="5" height="5" />
<rect x="55" y="55" width="5" height="5" />
</svg>